#!OML:ASF F:\VICON\USERDATA\INSTALL\Justin_Nancy\Justin_Nancy.ASF
:FULLY-SPECIFIED
:DEGREES
17
root -8.927 17.4765 -30.2895 -2.41941 -4.71747 3.70173
lowerback 3.95545 -4.11673 -3.55292
upperback -1.60841 -5.57414 3.67134
thorax -3.17333 -2.67085 6.14702
lowerneck -1.20658 3.30852 -15.8771
upperneck 17.5738 4.82434 4.33952
head 5.05346 1.61263 4.17438
rclavicle 8.54277e-014 1.43125e-014
rhumerus -37.8095 -2.94401 -77.6017
rradius 28.7307
rwrist 6.62025
rhand -13.35 11.2062
rfingers 7.12502
rthumb 12.7558 -18.3841
lclavicle 8.54277e-014 1.43125e-014
lhumerus -42.5085 22.5807 77.8774
lradius 30.5169
lwrist -9.10333
lhand -17.8611 23.9645
lfingers 7.12502
lthumb 8.40436 53.7773
rfemur -24.9259 -0.947081 17.4241
rtibia 68.7656
rfoot -3.14205 -5.95323
rtoes 6.22362
lfemur -8.70306 -1.96168 -28.7305
ltibia 26.6845
lfoot -12.771 -0.328297
ltoes 2.03974
18
root -8.93681 17.4537 -30.1532 -2.3371 -4.60546 3.86606
lowerback 6.76877 -3.26709 -6.31523
upperback -1.95137 -4.68329 5.07763
thorax -4.92049 -2.05225 9.4586
lowerneck -5.69542 2.1041 -14.9754
upperneck 20.0613 4.27707 2.63565
head 6.75257 1.16121 3.63008
rclavicle -5.37713e-014 0
rhumerus -37.407 -3.86942 -74.7029
rradius 28.1879
rwrist 6.66844
rhand -12.6925 14.435
rfingers 7.12502
rthumb 13.3896 -15.1147
lclavicle -5.37713e-014 0
lhumerus -41.0914 22.561 80.5448
lradius 30.3436
lwrist -9.65182
lhand -17.176 23.9418
lfingers 7.12502
lthumb 9.06556 53.7269
rfemur -25.9262 -0.928002 17.2628
rtibia 67.725
rfoot -4.27121 -6.1164
rtoes 4.64542
lfemur -8.59569 -1.91681 -28.9551
ltibia 27.2191
lfoot -13.4169 -0.182847
ltoes 2.16493
19
root -8.94714 17.4319 -30.0257 -2.35632 -4.46441 3.82532
lowerback 7.19829 -2.89075 -6.21995
upperback -1.91811 -4.19459 4.92853
thorax -5.24734 -1.79548 9.23522
lowerneck -6.01497 1.58905 -14.506
upperneck 20.3322 3.58646 2.59842
head 6.9644 0.845886 3.51343
rclavicle -1.38652e-014 5.40694e-014
rhumerus -37.9327 -5.85305 -73.7824
rradius 28.0473
rwrist 6.79841
rhand -11.6077 16.5279
rfingers 7.12502
rthumb 14.435 -12.9501
lclavicle -1.38652e-014 5.40694e-014
lhumerus -40.1102 21.0221 81.1227
lradius 30.4343
lwrist -9.559
lhand -16.2748 24.2451
lfingers 7.12502
lthumb 9.93504 53.9906
rfemur -26.7227 -0.911514 17.3648
rtibia 66.4516
rfoot -5.14983 -6.13947
rtoes 4.16102
lfemur -8.2992 -1.96728 -28.9537
ltibia 27.5279
lfoot -13.9226 -0.187735
ltoes 2.60571
20
root -8.98549 17.3919 -29.912 -1.93461 -7.76075 4.19117
lowerback 6.72668 -1.80769 -7.33538
upperback -1.85529 -2.81472 5.06829
thorax -5.13909 -1.076 9.88743
lowerneck -6.15216 1.53893 -14.5231
upperneck 20.5394 3.55638 2.56008
head 7.06083 0.81538 3.5091
rclavicle -1.03368e-014 6.83819e-014
rhumerus -38.044 -5.27899 -74.1236
rradius 28.4029
rwrist 6.74353
rhand -12.2555 15.6808
rfingers 7.12502
rthumb 13.8108 -13.8407
lclavicle -1.03368e-014 6.83819e-014
lhumerus -39.6981 20.6713 81.2658
lradius 30.7764
lwrist -9.21104
lhand -16.2111 23.6726
lfingers 7.12502
lthumb 9.99647 53.4152
rfemur -28.7957 2.122 17.1892
rtibia 65.1759
rfoot -5.31248 -5.77639
rtoes 4.2356
lfemur -8.64097 0.330367 -29.2499
ltibia 27.8553
lfoot -14.654 0.707511
ltoes 3.17187
21
root -8.96233 17.4082 -29.7388 -2.06312 -3.43978 4.16798
lowerback 7.06664 -3.39464 -6.70137
upperback -1.97398 -4.90897 4.98046
thorax -5.04569 -2.14571 9.62258
lowerneck -6.28558 1.69516 -14.5355
upperneck 20.483 3.7807 2.62391
head 7.04298 0.930874 3.54788
rclavicle 5.54609e-014 6.36111e-015
rhumerus -38.0312 -5.15395 -74.1085
rradius 28.3532
rwrist 6.82124
rhand -11.8341 15.9946
rfingers 7.12502
rthumb 14.2169 -13.4988
lclavicle 5.54609e-014 6.36111e-015
lhumerus -39.5133 20.6588 81.2361
lradius 31.2849
lwrist -9.2118
lhand -16.1433 23.2753
lfingers 7.12502
lthumb 10.062 53.0148
rfemur -28.0927 -1.60744 16.9441
rtibia 63.3533
rfoot -6.65472 -6.31487
rtoes 5.02554
lfemur -7.69601 -2.2135 -29.392
ltibia 27.9375
lfoot -15.0653 -0.778865
ltoes 3.35957
22
root -8.97324 17.3983 -29.6024 -1.94915 -3.51298 4.2489
lowerback 7.24243 -3.25161 -6.74073
upperback -2.02259 -4.73278 4.91391
thorax -5.23745 -2.04409 9.57801
lowerneck -6.33735 1.53953 -14.3719
upperneck 20.3685 3.55158 2.62289
head 7.03587 0.839026 3.50436
rclavicle -4.06515e-014 1.43125e-014
rhumerus -38.4365 -5.45275 -73.9788
rradius 28.5678
rwrist 6.58172
rhand -11.6304 15.99
rfingers 7.12502
rthumb 14.4132 -13.4896
lclavicle -4.06515e-014 1.43125e-014
lhumerus -39.0029 19.8752 81.5076
lradius 31.6413
lwrist -9.09989
lhand -16.531 23.6211
lfingers 7.12502
lthumb 9.68789 53.3783
rfemur -28.7671 -1.44894 16.8951
rtibia 61.4871
rfoot -7.10093 -6.8013
rtoes 4.73902
lfemur -7.29819 -1.90498 -29.4744
ltibia 27.9244
lfoot -15.5231 -0.882931
ltoes 3.5621
23
root -8.98218 17.3943 -29.4626 -1.83816 -3.45152 4.25213
lowerback 7.24891 -3.27757 -6.77794
upperback -2.03406 -4.76974 4.95475
thorax -5.23946 -2.06024 9.64905
lowerneck -6.02714 1.48162 -14.4972
upperneck 19.9746 3.4076 2.70521
head 6.86155 0.787689 3.52708
rclavicle -1.24986e-014 1.27222e-014
rhumerus -38.6157 -5.20564 -74.09
rradius 28.7501
rwrist 6.48878
rhand -12.2045 15.5394
rfingers 7.12502
rthumb 13.8599 -13.9788
lclavicle -1.24986e-014 1.27222e-014
lhumerus -38.6629 19.5068 81.6157
lradius 31.9987
lwrist -8.89157
lhand -16.6108 23.478
lfingers 7.12502
lthumb 9.61089 53.2388
rfemur -29.284 -1.41933 16.917
rtibia 59.3865
rfoot -7.2376 -7.31328
rtoes 3.79885
lfemur -6.79584 -1.71312 -29.4755
ltibia 27.6996
lfoot -15.7895 -0.979228
ltoes 3.59753
24
root -8.99047 17.3868 -29.3227 -1.77007 -3.0056 4.36429
lowerback 7.33863 -3.53241 -6.94981
upperback -2.03182 -5.13198 4.98995
thorax -5.19398 -2.23784 9.82503
lowerneck -6.13026 1.70077 -14.4584
upperneck 19.66 3.68415 2.85068
head 6.74648 0.952942 3.58024
rclavicle 4.37575e-014 -1.27222e-014
rhumerus -38.5683 -4.96444 -74.1817
rradius 28.7946
rwrist 6.62427
rhand -12.1529 15.5535
rfingers 7.12502
rthumb 13.9096 -13.9613
lclavicle 4.37575e-014 -1.27222e-014
lhumerus -38.3216 19.4678 81.6358
lradius 32.4565
lwrist -8.81341
lhand -16.3672 24.398
lfingers 7.12502
lthumb 9.84593 54.1478
rfemur -29.5797 -1.65656 16.7481
rtibia 57.1924
rfoot -6.92883 -7.65969
rtoes 5.7614
lfemur -6.21482 -1.837 -29.6142
ltibia 27.4483
lfoot -16.0347 -1.15107
ltoes 3.71146
25
root -9.008 17.3726 -29.1921 -1.41237 -2.83587 4.53575
lowerback 7.64314 -3.1886 -7.01928
upperback -2.07611 -4.70379 4.78292
thorax -5.51941 -2.00277 9.6339
lowerneck -7.40116 1.21621 -13.9311
upperneck 20.2237 3.16025 2.94965
head 7.20158 0.722013 3.52944
rclavicle 1.63749e-014 -7.95139e-015
rhumerus -38.773 -6.16735 -73.923
rradius 28.9401
rwrist 6.71631
rhand -11.9386 16.0115
rfingers 7.12502
rthumb 14.1161 -13.489
lclavicle 1.63749e-014 -7.95139e-015
lhumerus -37.3034 17.8256 82.2886
lradius 32.9405
lwrist -8.53298
lhand -16.6278 25.4847
lfingers 7.12502
lthumb 9.5945 55.2462
rfemur -30.3153 -1.55331 16.5719
rtibia 54.9139
rfoot -7.85944 -8.08102
rtoes 5.00601
lfemur -5.9529 -1.76808 -29.7801
ltibia 27.1426
lfoot -16.2526 -1.22419
ltoes 3.2056
